<mxfile host="app.diagrams.net" modified="2024-04-11T17:13:07.232Z" agent="Mozilla/5.0 (Windows NT 10.0; Win64; x64) AppleWebKit/537.36 (KHTML, like Gecko) Chrome/123.0.0.0 Safari/537.36" etag="eYKwzeSJm6ox4cSo3JHi" version="24.1.0" type="github">
  <diagram name="Page-1" id="fj45UCEYtAs2awPuzWjw">
    <mxGraphModel dx="1687" dy="878" grid="1" gridSize="10" guides="1" tooltips="1" connect="1" arrows="1" fold="1" page="1" pageScale="1" pageWidth="850" pageHeight="1100" math="0" shadow="0">
      <root>
        <mxCell id="0" />
        <mxCell id="1" parent="0" />
        <mxCell id="2rhzcLVIe7May03Keo2A-1" value="MAQUINA DE ESTADO REMITO" style="text;html=1;align=center;verticalAlign=middle;whiteSpace=wrap;rounded=0;" vertex="1" parent="1">
          <mxGeometry width="180" height="30" as="geometry" />
        </mxCell>
        <mxCell id="2rhzcLVIe7May03Keo2A-4" style="edgeStyle=orthogonalEdgeStyle;rounded=0;orthogonalLoop=1;jettySize=auto;html=1;" edge="1" parent="1" source="2rhzcLVIe7May03Keo2A-2" target="2rhzcLVIe7May03Keo2A-3">
          <mxGeometry relative="1" as="geometry" />
        </mxCell>
        <mxCell id="2rhzcLVIe7May03Keo2A-5" value="&lt;span style=&quot;font-size: 12px; text-wrap: wrap; background-color: rgb(251, 251, 251);&quot;&gt;cu 39/&lt;/span&gt;Generar remito / new()" style="edgeLabel;html=1;align=center;verticalAlign=middle;resizable=0;points=[];" vertex="1" connectable="0" parent="2rhzcLVIe7May03Keo2A-4">
          <mxGeometry x="-0.0968" y="2" relative="1" as="geometry">
            <mxPoint as="offset" />
          </mxGeometry>
        </mxCell>
        <mxCell id="2rhzcLVIe7May03Keo2A-2" value="" style="ellipse;whiteSpace=wrap;html=1;aspect=fixed;" vertex="1" parent="1">
          <mxGeometry x="20" y="110" width="30" height="30" as="geometry" />
        </mxCell>
        <mxCell id="2rhzcLVIe7May03Keo2A-7" style="edgeStyle=orthogonalEdgeStyle;rounded=0;orthogonalLoop=1;jettySize=auto;html=1;" edge="1" parent="1" source="2rhzcLVIe7May03Keo2A-3" target="2rhzcLVIe7May03Keo2A-6">
          <mxGeometry relative="1" as="geometry">
            <Array as="points">
              <mxPoint x="390" y="120" />
              <mxPoint x="390" y="110" />
            </Array>
          </mxGeometry>
        </mxCell>
        <mxCell id="2rhzcLVIe7May03Keo2A-8" value="cu 42/incluirPlanEntrega()" style="edgeLabel;html=1;align=center;verticalAlign=middle;resizable=0;points=[];" vertex="1" connectable="0" parent="2rhzcLVIe7May03Keo2A-7">
          <mxGeometry x="-0.282" y="2" relative="1" as="geometry">
            <mxPoint x="38" y="-8" as="offset" />
          </mxGeometry>
        </mxCell>
        <mxCell id="2rhzcLVIe7May03Keo2A-12" style="edgeStyle=orthogonalEdgeStyle;rounded=0;orthogonalLoop=1;jettySize=auto;html=1;entryX=0.5;entryY=0;entryDx=0;entryDy=0;" edge="1" parent="1" source="2rhzcLVIe7May03Keo2A-3" target="2rhzcLVIe7May03Keo2A-11">
          <mxGeometry relative="1" as="geometry">
            <Array as="points">
              <mxPoint x="270" y="160" />
              <mxPoint x="190" y="160" />
            </Array>
          </mxGeometry>
        </mxCell>
        <mxCell id="2rhzcLVIe7May03Keo2A-13" value="&lt;span style=&quot;font-size: 12px; text-wrap: wrap; background-color: rgb(251, 251, 251);&quot;&gt;cu 41/&lt;/span&gt;cancelar()" style="edgeLabel;html=1;align=center;verticalAlign=middle;resizable=0;points=[];" vertex="1" connectable="0" parent="2rhzcLVIe7May03Keo2A-12">
          <mxGeometry x="-0.0136" y="-2" relative="1" as="geometry">
            <mxPoint x="35" y="2" as="offset" />
          </mxGeometry>
        </mxCell>
        <mxCell id="2rhzcLVIe7May03Keo2A-3" value="Pendiente" style="rounded=1;whiteSpace=wrap;html=1;" vertex="1" parent="1">
          <mxGeometry x="230" y="107.5" width="80" height="35" as="geometry" />
        </mxCell>
        <mxCell id="2rhzcLVIe7May03Keo2A-14" style="edgeStyle=orthogonalEdgeStyle;rounded=0;orthogonalLoop=1;jettySize=auto;html=1;" edge="1" parent="1" source="2rhzcLVIe7May03Keo2A-6">
          <mxGeometry relative="1" as="geometry">
            <mxPoint x="470" y="142.5" as="sourcePoint" />
            <mxPoint x="310" y="127.52857142857135" as="targetPoint" />
            <Array as="points">
              <mxPoint x="370" y="143" />
              <mxPoint x="370" y="127" />
            </Array>
          </mxGeometry>
        </mxCell>
        <mxCell id="2rhzcLVIe7May03Keo2A-15" value="&lt;span style=&quot;font-size: 12px; text-wrap: wrap; background-color: rgb(251, 251, 251);&quot;&gt;cu44 y cu43/&amp;nbsp;&lt;/span&gt;quitarDelPlan()" style="edgeLabel;html=1;align=center;verticalAlign=middle;resizable=0;points=[];" vertex="1" connectable="0" parent="2rhzcLVIe7May03Keo2A-14">
          <mxGeometry x="-0.2703" y="-1" relative="1" as="geometry">
            <mxPoint y="3" as="offset" />
          </mxGeometry>
        </mxCell>
        <mxCell id="2rhzcLVIe7May03Keo2A-25" style="edgeStyle=orthogonalEdgeStyle;rounded=0;orthogonalLoop=1;jettySize=auto;html=1;" edge="1" parent="1" source="2rhzcLVIe7May03Keo2A-6" target="2rhzcLVIe7May03Keo2A-19">
          <mxGeometry relative="1" as="geometry" />
        </mxCell>
        <mxCell id="2rhzcLVIe7May03Keo2A-26" value="c45[y el remito fue aceptado]/confirmar()" style="edgeLabel;html=1;align=center;verticalAlign=middle;resizable=0;points=[];" vertex="1" connectable="0" parent="2rhzcLVIe7May03Keo2A-25">
          <mxGeometry x="-0.1864" y="-1" relative="1" as="geometry">
            <mxPoint as="offset" />
          </mxGeometry>
        </mxCell>
        <mxCell id="2rhzcLVIe7May03Keo2A-27" style="edgeStyle=orthogonalEdgeStyle;rounded=0;orthogonalLoop=1;jettySize=auto;html=1;" edge="1" parent="1" source="2rhzcLVIe7May03Keo2A-6" target="2rhzcLVIe7May03Keo2A-20">
          <mxGeometry relative="1" as="geometry" />
        </mxCell>
        <mxCell id="2rhzcLVIe7May03Keo2A-28" value="c45[algunas cortes no fueron aceptados]/confirmar()" style="edgeLabel;html=1;align=center;verticalAlign=middle;resizable=0;points=[];" vertex="1" connectable="0" parent="2rhzcLVIe7May03Keo2A-27">
          <mxGeometry x="0.3721" y="-2" relative="1" as="geometry">
            <mxPoint as="offset" />
          </mxGeometry>
        </mxCell>
        <mxCell id="2rhzcLVIe7May03Keo2A-32" style="edgeStyle=orthogonalEdgeStyle;rounded=0;orthogonalLoop=1;jettySize=auto;html=1;" edge="1" parent="1" source="2rhzcLVIe7May03Keo2A-6" target="2rhzcLVIe7May03Keo2A-31">
          <mxGeometry relative="1" as="geometry">
            <Array as="points">
              <mxPoint x="793" y="120" />
            </Array>
          </mxGeometry>
        </mxCell>
        <mxCell id="2rhzcLVIe7May03Keo2A-33" value="cu 62/decomisar()" style="edgeLabel;html=1;align=center;verticalAlign=middle;resizable=0;points=[];" vertex="1" connectable="0" parent="2rhzcLVIe7May03Keo2A-32">
          <mxGeometry x="0.5794" y="-3" relative="1" as="geometry">
            <mxPoint as="offset" />
          </mxGeometry>
        </mxCell>
        <mxCell id="2rhzcLVIe7May03Keo2A-6" value="Para Entregar" style="rounded=1;whiteSpace=wrap;html=1;" vertex="1" parent="1">
          <mxGeometry x="500" y="110" width="85" height="35" as="geometry" />
        </mxCell>
        <mxCell id="2rhzcLVIe7May03Keo2A-9" style="edgeStyle=orthogonalEdgeStyle;rounded=0;orthogonalLoop=1;jettySize=auto;html=1;entryX=0.75;entryY=0;entryDx=0;entryDy=0;" edge="1" parent="1" source="2rhzcLVIe7May03Keo2A-3" target="2rhzcLVIe7May03Keo2A-3">
          <mxGeometry relative="1" as="geometry">
            <Array as="points">
              <mxPoint x="270" y="70" />
              <mxPoint x="290" y="70" />
            </Array>
          </mxGeometry>
        </mxCell>
        <mxCell id="2rhzcLVIe7May03Keo2A-10" value="cu 40/modificarRemito()" style="edgeLabel;html=1;align=center;verticalAlign=middle;resizable=0;points=[];" vertex="1" connectable="0" parent="2rhzcLVIe7May03Keo2A-9">
          <mxGeometry x="-0.1369" y="-1" relative="1" as="geometry">
            <mxPoint as="offset" />
          </mxGeometry>
        </mxCell>
        <mxCell id="2rhzcLVIe7May03Keo2A-40" style="edgeStyle=orthogonalEdgeStyle;rounded=0;orthogonalLoop=1;jettySize=auto;html=1;" edge="1" parent="1" source="2rhzcLVIe7May03Keo2A-11" target="2rhzcLVIe7May03Keo2A-39">
          <mxGeometry relative="1" as="geometry">
            <Array as="points">
              <mxPoint x="190" y="585" />
            </Array>
          </mxGeometry>
        </mxCell>
        <mxCell id="2rhzcLVIe7May03Keo2A-11" value="Cancelado" style="rounded=1;whiteSpace=wrap;html=1;" vertex="1" parent="1">
          <mxGeometry x="150" y="250" width="80" height="35" as="geometry" />
        </mxCell>
        <mxCell id="2rhzcLVIe7May03Keo2A-41" style="edgeStyle=orthogonalEdgeStyle;rounded=0;orthogonalLoop=1;jettySize=auto;html=1;entryX=0.5;entryY=0;entryDx=0;entryDy=0;" edge="1" parent="1" source="2rhzcLVIe7May03Keo2A-17" target="2rhzcLVIe7May03Keo2A-39">
          <mxGeometry relative="1" as="geometry">
            <Array as="points">
              <mxPoint x="450" y="268" />
              <mxPoint x="450" y="570" />
            </Array>
          </mxGeometry>
        </mxCell>
        <mxCell id="2rhzcLVIe7May03Keo2A-17" value="Rechazado" style="rounded=1;whiteSpace=wrap;html=1;" vertex="1" parent="1">
          <mxGeometry x="260" y="250" width="80" height="35" as="geometry" />
        </mxCell>
        <mxCell id="2rhzcLVIe7May03Keo2A-18" style="edgeStyle=orthogonalEdgeStyle;rounded=0;orthogonalLoop=1;jettySize=auto;html=1;entryX=0.548;entryY=0.033;entryDx=0;entryDy=0;entryPerimeter=0;labelPosition=center;verticalLabelPosition=middle;align=center;verticalAlign=middle;labelBorderColor=none;" edge="1" parent="1" source="2rhzcLVIe7May03Keo2A-6" target="2rhzcLVIe7May03Keo2A-17">
          <mxGeometry relative="1" as="geometry">
            <Array as="points">
              <mxPoint x="512" y="200" />
              <mxPoint x="304" y="200" />
            </Array>
          </mxGeometry>
        </mxCell>
        <mxCell id="2rhzcLVIe7May03Keo2A-24" value="cu 45[Y no fue Aceptado]/rechazar()" style="edgeLabel;html=1;align=center;verticalAlign=middle;resizable=0;points=[];" vertex="1" connectable="0" parent="2rhzcLVIe7May03Keo2A-18">
          <mxGeometry x="0.3761" relative="1" as="geometry">
            <mxPoint x="50" as="offset" />
          </mxGeometry>
        </mxCell>
        <mxCell id="2rhzcLVIe7May03Keo2A-35" style="edgeStyle=orthogonalEdgeStyle;rounded=0;orthogonalLoop=1;jettySize=auto;html=1;" edge="1" parent="1" source="2rhzcLVIe7May03Keo2A-19" target="2rhzcLVIe7May03Keo2A-34">
          <mxGeometry relative="1" as="geometry" />
        </mxCell>
        <mxCell id="2rhzcLVIe7May03Keo2A-37" value="cu20/facturar()" style="edgeLabel;html=1;align=center;verticalAlign=middle;resizable=0;points=[];" vertex="1" connectable="0" parent="2rhzcLVIe7May03Keo2A-35">
          <mxGeometry x="-0.3214" relative="1" as="geometry">
            <mxPoint as="offset" />
          </mxGeometry>
        </mxCell>
        <mxCell id="2rhzcLVIe7May03Keo2A-19" value="Aceptado" style="rounded=1;whiteSpace=wrap;html=1;" vertex="1" parent="1">
          <mxGeometry x="502.5" y="370" width="80" height="35" as="geometry" />
        </mxCell>
        <mxCell id="2rhzcLVIe7May03Keo2A-36" style="edgeStyle=orthogonalEdgeStyle;rounded=0;orthogonalLoop=1;jettySize=auto;html=1;entryX=0.75;entryY=0;entryDx=0;entryDy=0;" edge="1" parent="1" source="2rhzcLVIe7May03Keo2A-20" target="2rhzcLVIe7May03Keo2A-34">
          <mxGeometry relative="1" as="geometry" />
        </mxCell>
        <mxCell id="2rhzcLVIe7May03Keo2A-38" value="cu20/facturar()" style="edgeLabel;html=1;align=center;verticalAlign=middle;resizable=0;points=[];" vertex="1" connectable="0" parent="2rhzcLVIe7May03Keo2A-36">
          <mxGeometry x="0.0776" y="-2" relative="1" as="geometry">
            <mxPoint as="offset" />
          </mxGeometry>
        </mxCell>
        <mxCell id="2rhzcLVIe7May03Keo2A-20" value="Aceptado Parcialmente" style="rounded=1;whiteSpace=wrap;html=1;" vertex="1" parent="1">
          <mxGeometry x="650" y="300" width="80" height="35" as="geometry" />
        </mxCell>
        <mxCell id="2rhzcLVIe7May03Keo2A-43" style="edgeStyle=orthogonalEdgeStyle;rounded=0;orthogonalLoop=1;jettySize=auto;html=1;" edge="1" parent="1" source="2rhzcLVIe7May03Keo2A-31" target="2rhzcLVIe7May03Keo2A-39">
          <mxGeometry relative="1" as="geometry">
            <Array as="points">
              <mxPoint x="793" y="585" />
            </Array>
          </mxGeometry>
        </mxCell>
        <mxCell id="2rhzcLVIe7May03Keo2A-31" value="Decomisado" style="rounded=1;whiteSpace=wrap;html=1;" vertex="1" parent="1">
          <mxGeometry x="750" y="405" width="85" height="35" as="geometry" />
        </mxCell>
        <mxCell id="2rhzcLVIe7May03Keo2A-42" style="edgeStyle=orthogonalEdgeStyle;rounded=0;orthogonalLoop=1;jettySize=auto;html=1;entryX=1;entryY=0;entryDx=0;entryDy=0;" edge="1" parent="1" source="2rhzcLVIe7May03Keo2A-34" target="2rhzcLVIe7May03Keo2A-39">
          <mxGeometry relative="1" as="geometry" />
        </mxCell>
        <mxCell id="2rhzcLVIe7May03Keo2A-34" value="facturado" style="rounded=1;whiteSpace=wrap;html=1;" vertex="1" parent="1">
          <mxGeometry x="582.5" y="470" width="80" height="35" as="geometry" />
        </mxCell>
        <mxCell id="2rhzcLVIe7May03Keo2A-39" value="" style="ellipse;whiteSpace=wrap;html=1;aspect=fixed;" vertex="1" parent="1">
          <mxGeometry x="460" y="570" width="30" height="30" as="geometry" />
        </mxCell>
      </root>
    </mxGraphModel>
  </diagram>
</mxfile>
